# xmcd
#
# Track frame offsets:
#	150
#	24707
#	44460
#	54395
#	67110
#	78907
#	89335
#	96150
#	108662
#	128585
#	150897
#	157280
#	178170
#	199392
#
# Disc length: 2815
#
# Revision: 1
# Processed by: cddbd v1.5.1PL0 Copyright (c) Steve Scherf et al.
# Submitted via: CDex 1.51
# Normalized: r0:TDELIM( - )
#
DISCID=be0afd0e
DTITLE=Sucessos Blues - Masterworks
DYEAR=1900
DGENRE=Blues
TTITLE0=B. B. King - I've Got A Mind To Give Up Living
TTITLE1=Alberto King - You're My Woman, I'm Your Mate
TTITLE2=John Lee Hooker - Dimples
TTITLE3=Elmore James - Find My Kinda Woman
TTITLE4=Jimmy Red - Bright Lights Big City
TTITLE5=Menmphis Slim - Gotta Find My Baby
TTITLE6=Lightnin' Hopkins - Play With Your Poodle
TTITLE7=Otis Rush - She's A Good Un
TTITLE8=Robert Cray - If You're Thinkin' What I'm Thinkin'
TTITLE9=John Mayall - All your Love
TTITLE10=Eric Clapton and Jimi Page - Choker
TTITLE11=Johnny Winter - Going Down Slow
TTITLE12=Carlos Santana - Travelin Blues
TTITLE13=Jimi Hendrix - She's a Fox
EXTD=
EXTT0=
EXTT1=
EXTT2=
EXTT3=
EXTT4=
EXTT5=
EXTT6=
EXTT7=
EXTT8=
EXTT9=
EXTT10=
EXTT11=
EXTT12=
EXTT13=
PLAYORDER=
